# xmcd
#
# Track frame offsets:
#	150
#	18161
#	35719
#	52499
#	66214
#	78931
#	95200
#	113406
#	127756
#	139904
#	155978
#	170921
#	183986
#	201195
#	215792
#	229796
#
# Disc length: 3253 seconds
#
# Revision: 1
# Processed by: cddbd v1.5.2PL0 Copyright (c) Steve Scherf et al.
# Submitted via: audiograbber 1.83.01
#
DISCID=f00cb310
DTITLE=Walter Scholz - Eine Reise durch die Südsee
DYEAR=2010
DGENRE=Instrumental
TTITLE0=Südseeromanze
TTITLE1=Aloha Ohe
TTITLE2=Sunshine Baby
TTITLE3=Nau Haka
TTITLE4=Adieu Hulahula Mädchen
TTITLE5=Sehnsuchtsmelodie
TTITLE6=La Paloma
TTITLE7=Dreams Of Hawaii
TTITLE8=Wiki Wiki
TTITLE9=Sun Of Hawaii
TTITLE10=Aloha Samoa
TTITLE11=Magic Of Waikiki
TTITLE12=Bora Bora
TTITLE13=Südseezauber
TTITLE14=Moonlight Lady
TTITLE15=Vaya con Dios
EXTD=
EXTT0=
EXTT1=
EXTT2=
EXTT3=
EXTT4=
EXTT5=
EXTT6=
EXTT7=
EXTT8=
EXTT9=
EXTT10=
EXTT11=
EXTT12=
EXTT13=
EXTT14=
EXTT15=
PLAYORDER=
